<svg width="523" height="447" viewBox="0 0 523 447" fill="none" xmlns="http://www.w3.org/2000/svg">
<path d="M273.074 230.536L253.354 210.816L143.999 320.17L163.72 339.891L273.074 230.536Z" fill="#999999" stroke="#333333" stroke-width="13.049" stroke-linecap="square" stroke-linejoin="bevel"/>
<path d="M378.884 174.659C378.884 212.026 348.592 242.318 311.225 242.318C273.859 242.318 243.566 212.026 243.566 174.659C243.566 137.292 273.859 107 311.225 107C348.592 107 378.884 137.292 378.884 174.659V174.659Z" fill="#999999" stroke="#333333" stroke-width="13.0493" stroke-linecap="square" stroke-linejoin="bevel"/>
<path d="M336.821 149.059C336.821 163.198 325.359 174.66 311.22 174.66C297.081 174.66 285.619 163.198 285.619 149.059C285.619 134.92 297.081 123.458 311.22 123.458C325.359 123.458 336.821 134.92 336.821 149.059V149.059Z" fill="white"/>
<path d="M487 222.5C487 340.965 390.965 437 272.5 437C154.035 437 58 340.965 58 222.5C58 104.035 154.035 8 272.5 8C390.965 8 487 104.035 487 222.5ZM98.486 222.5C98.486 318.605 176.395 396.514 272.5 396.514C368.605 396.514 446.514 318.605 446.514 222.5C446.514 126.395 368.605 48.486 272.5 48.486C176.395 48.486 98.486 126.395 98.486 222.5Z" fill="#FF0000" fill-opacity="0.68"/>
<path d="M154 95.0001L162.5 87.5001L169.5 82.0001L174.268 86.125L208.373 120.25L276.582 188.5L413.001 325L409.501 329.5L407.001 333L401.501 339.5L395.001 346L392.501 348.5L390.501 350.5L388.501 352.5L251.251 215.331L182.626 146.747L148.313 112.455L144.024 108.169L142.5 106.5L147 101.5L154 95.0001Z" fill="#FF0000" fill-opacity="0.68"/>
</svg>
